<svg width="21" height="19" viewBox="0 0 21 19" fill="none" xmlns="http://www.w3.org/2000/svg">
<path d="M10.5 13.0625C10.9921 13.0625 11.4068 12.8908 11.744 12.5474C12.0813 12.2042 12.25 11.7822 12.25 11.2812C12.25 10.7803 12.0813 10.3583 11.744 10.0151C11.4068 9.67169 10.9921 9.5 10.5 9.5C10.0079 9.5 9.59321 9.67169 9.25604 10.0151C8.91868 10.3583 8.75 10.7803 8.75 11.2812C8.75 11.7822 8.91868 12.2042 9.25604 12.5474C9.59321 12.8908 10.0079 13.0625 10.5 13.0625ZM1.88475 19C1.34769 19 0.899306 18.8169 0.539583 18.4508C0.179861 18.0846 0 17.6282 0 17.0816V5.48091C0 4.93426 0.179861 4.47786 0.539583 4.11172C0.899306 3.74557 1.34769 3.5625 1.88475 3.5625H7V1.91811C7 1.37166 7.17986 0.915365 7.53958 0.549219C7.89931 0.183073 8.34769 0 8.88475 0H12.1153C12.6523 0 13.1007 0.183073 13.4604 0.549219C13.8201 0.915365 14 1.37166 14 1.91811V3.5625H19.1152C19.6523 3.5625 20.1007 3.74557 20.4604 4.11172C20.8201 4.47786 21 4.93426 21 5.48091V17.0816C21 17.6282 20.8201 18.0846 20.4604 18.4508C20.1007 18.8169 19.6523 19 19.1152 19H1.88475ZM1.88475 17.8125H19.1152C19.2949 17.8125 19.4595 17.7364 19.609 17.5842C19.7586 17.432 19.8333 17.2645 19.8333 17.0816V5.48091C19.8333 5.29803 19.7586 5.13049 19.609 4.9783C19.4595 4.8261 19.2949 4.75 19.1152 4.75H1.88475C1.70508 4.75 1.54049 4.8261 1.39096 4.9783C1.24143 5.13049 1.16667 5.29803 1.16667 5.48091V17.0816C1.16667 17.2645 1.24143 17.432 1.39096 17.5842C1.54049 17.7364 1.70508 17.8125 1.88475 17.8125ZM8.16667 3.5625H12.8333V1.91811C12.8333 1.73543 12.7586 1.56799 12.609 1.4158C12.4595 1.2636 12.2949 1.1875 12.1153 1.1875H8.88475C8.70508 1.1875 8.54049 1.2636 8.39096 1.4158C8.24143 1.56799 8.16667 1.73543 8.16667 1.91811V3.5625Z" fill="#65758B"/>
</svg>
