<svg width="23" height="20" viewBox="0 0 23 20" fill="none" xmlns="http://www.w3.org/2000/svg">
<path d="M11.3864 4.02273C11.3864 3.15475 11.7312 2.32231 12.3449 1.70856C12.9587 1.0948 13.7911 0.75 14.6591 0.75H22.0227V15.4773H14.6591C13.7911 15.4773 12.9587 15.8221 12.3449 16.4358C11.7312 17.0496 11.3864 17.882 11.3864 18.75" stroke="#65758B" stroke-width="1.5" stroke-linecap="round" stroke-linejoin="round"/>
<path d="M0.75 15.4773H8.11364C8.98162 15.4773 9.81405 15.8221 10.4278 16.4358C11.0416 17.0496 11.3864 17.882 11.3864 18.75V4.02273C11.3864 3.15475 11.0416 2.32231 10.4278 1.70856C9.81405 1.0948 8.98162 0.75 8.11364 0.75H0.75V15.4773Z" stroke="#65758B" stroke-width="1.5" stroke-linecap="round" stroke-linejoin="round"/>
</svg>
