<svg width="20" height="20" viewBox="0 0 20 20" fill="none" xmlns="http://www.w3.org/2000/svg">
<path d="M4.99998 18.3334C4.55795 18.3334 4.13403 18.1578 3.82147 17.8453C3.50891 17.5327 3.33331 17.1088 3.33331 16.6668V3.33342C3.33331 2.89139 3.50891 2.46747 3.82147 2.15491C4.13403 1.84235 4.55795 1.66675 4.99998 1.66675H11.6666C11.9304 1.66632 12.1917 1.71809 12.4354 1.81906C12.6791 1.92003 12.9005 2.06822 13.0866 2.25508L16.0766 5.24508C16.264 5.43134 16.4126 5.65287 16.5139 5.89689C16.6152 6.1409 16.6671 6.40256 16.6666 6.66675V16.6668C16.6666 17.1088 16.4911 17.5327 16.1785 17.8453C15.8659 18.1578 15.442 18.3334 15 18.3334H4.99998Z" stroke="#65758B" stroke-width="1.66667" stroke-linecap="round" stroke-linejoin="round"/>
<path d="M11.6667 1.66675V5.83341C11.6667 6.05443 11.7545 6.26639 11.9108 6.42267C12.067 6.57895 12.279 6.66675 12.5 6.66675H16.6667" stroke="#65758B" stroke-width="1.66667" stroke-linecap="round" stroke-linejoin="round"/>
<path d="M8.33335 7.5H6.66669" stroke="#65758B" stroke-width="1.66667" stroke-linecap="round" stroke-linejoin="round"/>
<path d="M13.3334 10.8333H6.66669" stroke="#65758B" stroke-width="1.66667" stroke-linecap="round" stroke-linejoin="round"/>
<path d="M13.3334 14.1667H6.66669" stroke="#65758B" stroke-width="1.66667" stroke-linecap="round" stroke-linejoin="round"/>
</svg>
